<mxfile host="app.diagrams.net" modified="2023-04-26T22:34:44.458Z" agent="Mozilla/5.0 (Windows NT 10.0; Win64; x64) AppleWebKit/537.36 (KHTML, like Gecko) Chrome/112.0.0.0 Safari/537.36" etag="YuKV70Kdr-7rKNuMHKsU" version="21.2.2" type="google">
  <diagram name="Página-1" id="UClVQGibqvuYPPIpyzIm">
    <mxGraphModel grid="1" page="1" gridSize="10" guides="1" tooltips="1" connect="1" arrows="1" fold="1" pageScale="1" pageWidth="827" pageHeight="1169" math="0" shadow="0">
      <root>
        <mxCell id="0" />
        <mxCell id="1" parent="0" />
        <mxCell id="S0poTsxjgl5lhnEiMx-0-1" value="" style="fontColor=#0066CC;verticalAlign=top;verticalLabelPosition=bottom;labelPosition=center;align=center;html=1;outlineConnect=0;fillColor=#CCCCCC;strokeColor=#6881B3;gradientColor=none;gradientDirection=north;strokeWidth=2;shape=mxgraph.networks.pc;" vertex="1" parent="1">
          <mxGeometry x="140" y="210" width="160" height="120" as="geometry" />
        </mxCell>
        <mxCell id="S0poTsxjgl5lhnEiMx-0-2" value="" style="html=1;verticalLabelPosition=bottom;align=center;labelBackgroundColor=#ffffff;verticalAlign=top;strokeWidth=2;strokeColor=#0080F0;shadow=0;dashed=0;shape=mxgraph.ios7.icons.smartphone;" vertex="1" parent="1">
          <mxGeometry x="170" y="585" width="100" height="180" as="geometry" />
        </mxCell>
        <mxCell id="S0poTsxjgl5lhnEiMx-0-3" value="Navegador&lt;br&gt;Web" style="shape=module;align=left;spacingLeft=20;align=center;verticalAlign=top;whiteSpace=wrap;html=1;" vertex="1" parent="1">
          <mxGeometry x="190" y="230" width="90" height="50" as="geometry" />
        </mxCell>
        <mxCell id="S0poTsxjgl5lhnEiMx-0-4" value="Module" style="shape=module;align=left;spacingLeft=20;align=center;verticalAlign=top;whiteSpace=wrap;html=1;" vertex="1" parent="1">
          <mxGeometry x="50" y="-230" width="120" height="70" as="geometry" />
        </mxCell>
        <mxCell id="S0poTsxjgl5lhnEiMx-0-5" value="&lt;p style=&quot;margin:0px;margin-top:6px;text-align:center;&quot;&gt;&lt;b&gt;Component&lt;/b&gt;&lt;/p&gt;&lt;hr/&gt;&lt;p style=&quot;margin:0px;margin-left:8px;&quot;&gt;+ Attribute1: Type&lt;br/&gt;+ Attribute2: Type&lt;/p&gt;" style="align=left;overflow=fill;html=1;dropTarget=0;whiteSpace=wrap;" vertex="1" parent="1">
          <mxGeometry x="80" y="60" width="180" height="90" as="geometry" />
        </mxCell>
        <mxCell id="S0poTsxjgl5lhnEiMx-0-6" value="" style="shape=component;jettyWidth=8;jettyHeight=4;" vertex="1" parent="S0poTsxjgl5lhnEiMx-0-5">
          <mxGeometry x="1" width="20" height="20" relative="1" as="geometry">
            <mxPoint x="-24" y="4" as="offset" />
          </mxGeometry>
        </mxCell>
        <mxCell id="S0poTsxjgl5lhnEiMx-0-7" value="En el caso de un navegador web se usaría Module si y solo si la&amp;nbsp; la aplicación está diseñada con una arquitectura en capas&lt;br&gt;&amp;nbsp;" style="text;html=1;strokeColor=none;fillColor=none;align=center;verticalAlign=middle;whiteSpace=wrap;rounded=0;" vertex="1" parent="1">
          <mxGeometry x="240" y="-245" width="140" height="100" as="geometry" />
        </mxCell>
        <mxCell id="S0poTsxjgl5lhnEiMx-0-8" value="En el caso de un navegador web se usaría Componente&amp;nbsp;si la aplicación está diseñada como un conjunto de módulos que se integran para ofrecer la funcionalidad deseada.&lt;br&gt;&amp;nbsp;" style="text;html=1;strokeColor=none;fillColor=none;align=center;verticalAlign=middle;whiteSpace=wrap;rounded=0;" vertex="1" parent="1">
          <mxGeometry x="240" y="-110" width="140" height="100" as="geometry" />
        </mxCell>
        <mxCell id="S0poTsxjgl5lhnEiMx-0-9" value="Navegador Web" style="shape=module;align=left;spacingLeft=20;align=center;verticalAlign=top;whiteSpace=wrap;html=1;" vertex="1" parent="1">
          <mxGeometry x="170" y="635" width="90" height="50" as="geometry" />
        </mxCell>
        <mxCell id="S0poTsxjgl5lhnEiMx-0-10" style="edgeStyle=orthogonalEdgeStyle;rounded=0;orthogonalLoop=1;jettySize=auto;html=1;entryX=0.15;entryY=0.5;entryDx=0;entryDy=0;entryPerimeter=0;" edge="1" parent="1" source="S0poTsxjgl5lhnEiMx-0-13" target="S0poTsxjgl5lhnEiMx-0-15">
          <mxGeometry relative="1" as="geometry">
            <Array as="points">
              <mxPoint x="-6" y="455" />
            </Array>
          </mxGeometry>
        </mxCell>
        <mxCell id="S0poTsxjgl5lhnEiMx-0-11" style="edgeStyle=orthogonalEdgeStyle;rounded=0;orthogonalLoop=1;jettySize=auto;html=1;entryX=0;entryY=0.5;entryDx=0;entryDy=0;entryPerimeter=0;" edge="1" parent="1" source="S0poTsxjgl5lhnEiMx-0-13" target="S0poTsxjgl5lhnEiMx-0-1">
          <mxGeometry relative="1" as="geometry">
            <Array as="points">
              <mxPoint x="-6" y="270" />
            </Array>
          </mxGeometry>
        </mxCell>
        <mxCell id="S0poTsxjgl5lhnEiMx-0-12" style="edgeStyle=orthogonalEdgeStyle;rounded=0;orthogonalLoop=1;jettySize=auto;html=1;entryX=0;entryY=0;entryDx=0;entryDy=35;entryPerimeter=0;" edge="1" parent="1" source="S0poTsxjgl5lhnEiMx-0-13" target="S0poTsxjgl5lhnEiMx-0-9">
          <mxGeometry relative="1" as="geometry">
            <Array as="points">
              <mxPoint x="-6" y="670" />
            </Array>
          </mxGeometry>
        </mxCell>
        <mxCell id="S0poTsxjgl5lhnEiMx-0-13" value="" style="sketch=0;aspect=fixed;pointerEvents=1;shadow=0;dashed=0;html=1;strokeColor=none;labelPosition=center;verticalLabelPosition=bottom;verticalAlign=top;align=center;fillColor=#00188D;shape=mxgraph.azure.user" vertex="1" parent="1">
          <mxGeometry x="-77" y="430" width="47" height="50" as="geometry" />
        </mxCell>
        <mxCell id="S0poTsxjgl5lhnEiMx-0-14" value="&amp;lt;&amp;lt;users&amp;gt;&amp;gt;" style="text;html=1;strokeColor=none;fillColor=none;align=center;verticalAlign=middle;whiteSpace=wrap;rounded=0;" vertex="1" parent="1">
          <mxGeometry x="-83.5" y="480" width="60" height="30" as="geometry" />
        </mxCell>
        <mxCell id="S0poTsxjgl5lhnEiMx-0-15" value="" style="fontColor=#0066CC;verticalAlign=top;verticalLabelPosition=bottom;labelPosition=center;align=center;html=1;outlineConnect=0;fillColor=#CCCCCC;strokeColor=#6881B3;gradientColor=none;gradientDirection=north;strokeWidth=2;shape=mxgraph.networks.laptop;" vertex="1" parent="1">
          <mxGeometry x="125" y="390" width="200" height="130" as="geometry" />
        </mxCell>
        <mxCell id="S0poTsxjgl5lhnEiMx-0-16" value="Navegador&lt;br&gt;Web" style="shape=module;align=left;spacingLeft=20;align=center;verticalAlign=top;whiteSpace=wrap;html=1;" vertex="1" parent="1">
          <mxGeometry x="180" y="410" width="90" height="50" as="geometry" />
        </mxCell>
        <mxCell id="S0poTsxjgl5lhnEiMx-0-17" value="&amp;lt;&amp;lt;clients&amp;gt;&amp;gt;" style="text;html=1;strokeColor=none;fillColor=none;align=center;verticalAlign=middle;whiteSpace=wrap;rounded=0;" vertex="1" parent="1">
          <mxGeometry x="210" y="170" width="60" height="30" as="geometry" />
        </mxCell>
        <mxCell id="S0poTsxjgl5lhnEiMx-0-18" value="" style="image;aspect=fixed;html=1;points=[];align=center;fontSize=12;image=img/lib/azure2/networking/CDN_Profiles.svg;" vertex="1" parent="1">
          <mxGeometry x="580" y="410" width="136" height="80" as="geometry" />
        </mxCell>
        <mxCell id="S0poTsxjgl5lhnEiMx-0-19" value="" style="endArrow=none;dashed=1;html=1;rounded=0;exitX=1;exitY=0.5;exitDx=0;exitDy=0;exitPerimeter=0;" edge="1" parent="1" source="S0poTsxjgl5lhnEiMx-0-25">
          <mxGeometry width="50" height="50" relative="1" as="geometry">
            <mxPoint x="470" y="350" as="sourcePoint" />
            <mxPoint x="480" y="270" as="targetPoint" />
          </mxGeometry>
        </mxCell>
        <mxCell id="S0poTsxjgl5lhnEiMx-0-20" value="" style="endArrow=none;dashed=1;html=1;rounded=0;" edge="1" parent="1">
          <mxGeometry width="50" height="50" relative="1" as="geometry">
            <mxPoint x="480" y="450" as="sourcePoint" />
            <mxPoint x="480" y="270" as="targetPoint" />
          </mxGeometry>
        </mxCell>
        <mxCell id="S0poTsxjgl5lhnEiMx-0-21" value="" style="endArrow=none;dashed=1;html=1;rounded=0;exitX=0.85;exitY=0.5;exitDx=0;exitDy=0;exitPerimeter=0;entryX=-0.022;entryY=0.563;entryDx=0;entryDy=0;entryPerimeter=0;" edge="1" parent="1" source="S0poTsxjgl5lhnEiMx-0-35" target="S0poTsxjgl5lhnEiMx-0-18">
          <mxGeometry width="50" height="50" relative="1" as="geometry">
            <mxPoint x="490" y="490" as="sourcePoint" />
            <mxPoint x="520" y="455" as="targetPoint" />
          </mxGeometry>
        </mxCell>
        <mxCell id="S0poTsxjgl5lhnEiMx-0-22" value="" style="endArrow=none;dashed=1;html=1;rounded=0;exitX=1.03;exitY=0.439;exitDx=0;exitDy=0;exitPerimeter=0;" edge="1" parent="1" source="S0poTsxjgl5lhnEiMx-0-29">
          <mxGeometry width="50" height="50" relative="1" as="geometry">
            <mxPoint x="305" y="465" as="sourcePoint" />
            <mxPoint x="480" y="670" as="targetPoint" />
          </mxGeometry>
        </mxCell>
        <mxCell id="S0poTsxjgl5lhnEiMx-0-23" value="" style="endArrow=none;dashed=1;html=1;rounded=0;entryX=0.417;entryY=-0.05;entryDx=0;entryDy=0;entryPerimeter=0;" edge="1" parent="1" source="S0poTsxjgl5lhnEiMx-0-41" target="S0poTsxjgl5lhnEiMx-0-38">
          <mxGeometry width="50" height="50" relative="1" as="geometry">
            <mxPoint x="480" y="460" as="sourcePoint" />
            <mxPoint x="480" y="850" as="targetPoint" />
          </mxGeometry>
        </mxCell>
        <mxCell id="S0poTsxjgl5lhnEiMx-0-24" value="" style="endArrow=none;dashed=1;html=1;rounded=0;exitX=1;exitY=0.5;exitDx=0;exitDy=0;exitPerimeter=0;" edge="1" parent="1" source="S0poTsxjgl5lhnEiMx-0-1" target="S0poTsxjgl5lhnEiMx-0-25">
          <mxGeometry width="50" height="50" relative="1" as="geometry">
            <mxPoint x="300" y="270" as="sourcePoint" />
            <mxPoint x="480" y="270" as="targetPoint" />
          </mxGeometry>
        </mxCell>
        <mxCell id="S0poTsxjgl5lhnEiMx-0-25" value="HTTPS" style="text;html=1;strokeColor=none;fillColor=none;align=center;verticalAlign=middle;whiteSpace=wrap;rounded=0;" vertex="1" parent="1">
          <mxGeometry x="354" y="255" width="60" height="30" as="geometry" />
        </mxCell>
        <mxCell id="S0poTsxjgl5lhnEiMx-0-26" value="" style="endArrow=none;dashed=1;html=1;rounded=0;exitX=0.85;exitY=0.5;exitDx=0;exitDy=0;exitPerimeter=0;entryX=-0.022;entryY=0.563;entryDx=0;entryDy=0;entryPerimeter=0;" edge="1" parent="1" source="S0poTsxjgl5lhnEiMx-0-15" target="S0poTsxjgl5lhnEiMx-0-27">
          <mxGeometry width="50" height="50" relative="1" as="geometry">
            <mxPoint x="295" y="455" as="sourcePoint" />
            <mxPoint x="527" y="455" as="targetPoint" />
          </mxGeometry>
        </mxCell>
        <mxCell id="S0poTsxjgl5lhnEiMx-0-27" value="HTTPS" style="text;html=1;strokeColor=none;fillColor=none;align=center;verticalAlign=middle;whiteSpace=wrap;rounded=0;" vertex="1" parent="1">
          <mxGeometry x="354" y="440" width="60" height="30" as="geometry" />
        </mxCell>
        <mxCell id="S0poTsxjgl5lhnEiMx-0-28" value="" style="endArrow=none;dashed=1;html=1;rounded=0;" edge="1" parent="1" target="S0poTsxjgl5lhnEiMx-0-29">
          <mxGeometry width="50" height="50" relative="1" as="geometry">
            <mxPoint x="270" y="670" as="sourcePoint" />
            <mxPoint x="480" y="664" as="targetPoint" />
          </mxGeometry>
        </mxCell>
        <mxCell id="S0poTsxjgl5lhnEiMx-0-29" value="HTTPS" style="text;html=1;strokeColor=none;fillColor=none;align=center;verticalAlign=middle;whiteSpace=wrap;rounded=0;" vertex="1" parent="1">
          <mxGeometry x="354" y="655" width="60" height="30" as="geometry" />
        </mxCell>
        <mxCell id="S0poTsxjgl5lhnEiMx-0-30" value="&amp;lt;&amp;lt;CDN/WAF&amp;gt;&amp;gt;" style="text;html=1;strokeColor=none;fillColor=none;align=center;verticalAlign=middle;whiteSpace=wrap;rounded=0;" vertex="1" parent="1">
          <mxGeometry x="610" y="500" width="60" height="30" as="geometry" />
        </mxCell>
        <mxCell id="S0poTsxjgl5lhnEiMx-0-31" value="" style="sketch=0;points=[[0,0,0],[0.25,0,0],[0.5,0,0],[0.75,0,0],[1,0,0],[0,1,0],[0.25,1,0],[0.5,1,0],[0.75,1,0],[1,1,0],[0,0.25,0],[0,0.5,0],[0,0.75,0],[1,0.25,0],[1,0.5,0],[1,0.75,0]];outlineConnect=0;fontColor=#232F3E;gradientColor=#945DF2;gradientDirection=north;fillColor=#5A30B5;strokeColor=#ffffff;dashed=0;verticalLabelPosition=bottom;verticalAlign=top;align=center;html=1;fontSize=12;fontStyle=0;aspect=fixed;shape=mxgraph.aws4.resourceIcon;resIcon=mxgraph.aws4.api_gateway;" vertex="1" parent="1">
          <mxGeometry x="838" y="432" width="78" height="78" as="geometry" />
        </mxCell>
        <mxCell id="S0poTsxjgl5lhnEiMx-0-32" value="&amp;lt;&amp;lt;API Gateway&amp;gt;" style="text;html=1;strokeColor=none;fillColor=none;align=center;verticalAlign=middle;whiteSpace=wrap;rounded=0;" vertex="1" parent="1">
          <mxGeometry x="816" y="520" width="100" height="30" as="geometry" />
        </mxCell>
        <mxCell id="S0poTsxjgl5lhnEiMx-0-33" value="" style="endArrow=none;dashed=1;html=1;rounded=0;exitX=1.037;exitY=0.688;exitDx=0;exitDy=0;exitPerimeter=0;entryX=0;entryY=0.5;entryDx=0;entryDy=0;entryPerimeter=0;" edge="1" parent="1" source="S0poTsxjgl5lhnEiMx-0-37" target="S0poTsxjgl5lhnEiMx-0-31">
          <mxGeometry width="50" height="50" relative="1" as="geometry">
            <mxPoint x="415" y="465" as="sourcePoint" />
            <mxPoint x="567" y="465" as="targetPoint" />
          </mxGeometry>
        </mxCell>
        <mxCell id="S0poTsxjgl5lhnEiMx-0-34" value="" style="endArrow=none;dashed=1;html=1;rounded=0;exitX=0.85;exitY=0.5;exitDx=0;exitDy=0;exitPerimeter=0;entryX=-0.022;entryY=0.563;entryDx=0;entryDy=0;entryPerimeter=0;" edge="1" parent="1" source="S0poTsxjgl5lhnEiMx-0-27" target="S0poTsxjgl5lhnEiMx-0-35">
          <mxGeometry width="50" height="50" relative="1" as="geometry">
            <mxPoint x="405" y="455" as="sourcePoint" />
            <mxPoint x="557" y="455" as="targetPoint" />
          </mxGeometry>
        </mxCell>
        <mxCell id="S0poTsxjgl5lhnEiMx-0-35" value="HTTPS" style="text;html=1;strokeColor=none;fillColor=none;align=center;verticalAlign=middle;whiteSpace=wrap;rounded=0;" vertex="1" parent="1">
          <mxGeometry x="500" y="440" width="60" height="30" as="geometry" />
        </mxCell>
        <mxCell id="S0poTsxjgl5lhnEiMx-0-36" value="" style="endArrow=none;dashed=1;html=1;rounded=0;exitX=1.037;exitY=0.688;exitDx=0;exitDy=0;exitPerimeter=0;entryX=0;entryY=0.5;entryDx=0;entryDy=0;entryPerimeter=0;" edge="1" parent="1" source="S0poTsxjgl5lhnEiMx-0-18" target="S0poTsxjgl5lhnEiMx-0-37">
          <mxGeometry width="50" height="50" relative="1" as="geometry">
            <mxPoint x="721" y="465" as="sourcePoint" />
            <mxPoint x="827" y="461" as="targetPoint" />
          </mxGeometry>
        </mxCell>
        <mxCell id="S0poTsxjgl5lhnEiMx-0-37" value="HTTPS" style="text;html=1;strokeColor=none;fillColor=none;align=center;verticalAlign=middle;whiteSpace=wrap;rounded=0;" vertex="1" parent="1">
          <mxGeometry x="740" y="450" width="60" height="30" as="geometry" />
        </mxCell>
        <mxCell id="S0poTsxjgl5lhnEiMx-0-38" value="Autenticador" style="rounded=0;whiteSpace=wrap;html=1;" vertex="1" parent="1">
          <mxGeometry x="430" y="800" width="120" height="60" as="geometry" />
        </mxCell>
        <mxCell id="S0poTsxjgl5lhnEiMx-0-39" value="" style="endArrow=none;dashed=1;html=1;rounded=0;exitX=0.5;exitY=0;exitDx=0;exitDy=0;entryX=0.5;entryY=1;entryDx=0;entryDy=0;entryPerimeter=0;" edge="1" parent="1" source="S0poTsxjgl5lhnEiMx-0-43" target="S0poTsxjgl5lhnEiMx-0-31">
          <mxGeometry width="50" height="50" relative="1" as="geometry">
            <mxPoint x="426" y="678" as="sourcePoint" />
            <mxPoint x="890" y="830" as="targetPoint" />
            <Array as="points" />
          </mxGeometry>
        </mxCell>
        <mxCell id="S0poTsxjgl5lhnEiMx-0-40" value="" style="endArrow=none;dashed=1;html=1;rounded=0;entryX=0.417;entryY=-0.05;entryDx=0;entryDy=0;entryPerimeter=0;" edge="1" parent="1" target="S0poTsxjgl5lhnEiMx-0-41">
          <mxGeometry width="50" height="50" relative="1" as="geometry">
            <mxPoint x="480" y="460" as="sourcePoint" />
            <mxPoint x="480" y="797" as="targetPoint" />
          </mxGeometry>
        </mxCell>
        <mxCell id="S0poTsxjgl5lhnEiMx-0-41" value="HTTPS" style="text;html=1;strokeColor=none;fillColor=none;align=center;verticalAlign=middle;whiteSpace=wrap;rounded=0;" vertex="1" parent="1">
          <mxGeometry x="450" y="740" width="60" height="30" as="geometry" />
        </mxCell>
        <mxCell id="S0poTsxjgl5lhnEiMx-0-42" value="" style="endArrow=none;dashed=1;html=1;rounded=0;exitX=1;exitY=0.5;exitDx=0;exitDy=0;entryX=0.5;entryY=1;entryDx=0;entryDy=0;entryPerimeter=0;" edge="1" parent="1" source="S0poTsxjgl5lhnEiMx-0-38" target="S0poTsxjgl5lhnEiMx-0-43">
          <mxGeometry width="50" height="50" relative="1" as="geometry">
            <mxPoint x="550" y="830" as="sourcePoint" />
            <mxPoint x="877" y="510" as="targetPoint" />
            <Array as="points">
              <mxPoint x="880" y="830" />
            </Array>
          </mxGeometry>
        </mxCell>
        <mxCell id="S0poTsxjgl5lhnEiMx-0-43" value="HTTPS" style="text;html=1;strokeColor=none;fillColor=none;align=center;verticalAlign=middle;whiteSpace=wrap;rounded=0;" vertex="1" parent="1">
          <mxGeometry x="847" y="670" width="60" height="30" as="geometry" />
        </mxCell>
        <mxCell id="S0poTsxjgl5lhnEiMx-0-44" value="" style="endArrow=none;dashed=1;html=1;rounded=0;exitX=0.5;exitY=0;exitDx=0;exitDy=0;" edge="1" parent="1" source="S0poTsxjgl5lhnEiMx-0-47">
          <mxGeometry width="50" height="50" relative="1" as="geometry">
            <mxPoint x="490" y="460" as="sourcePoint" />
            <mxPoint x="666" y="190" as="targetPoint" />
          </mxGeometry>
        </mxCell>
        <mxCell id="S0poTsxjgl5lhnEiMx-0-45" value="&amp;lt;&amp;lt;storage&amp;gt;&amp;gt;" style="text;html=1;strokeColor=none;fillColor=none;align=center;verticalAlign=middle;whiteSpace=wrap;rounded=0;" vertex="1" parent="1">
          <mxGeometry x="636" y="70" width="60" height="30" as="geometry" />
        </mxCell>
        <mxCell id="S0poTsxjgl5lhnEiMx-0-46" value="" style="endArrow=none;dashed=1;html=1;rounded=0;exitX=0.632;exitY=-0.037;exitDx=0;exitDy=0;exitPerimeter=0;" edge="1" parent="1" source="S0poTsxjgl5lhnEiMx-0-18" target="S0poTsxjgl5lhnEiMx-0-47">
          <mxGeometry width="50" height="50" relative="1" as="geometry">
            <mxPoint x="666" y="407" as="sourcePoint" />
            <mxPoint x="666" y="190" as="targetPoint" />
          </mxGeometry>
        </mxCell>
        <mxCell id="S0poTsxjgl5lhnEiMx-0-47" value="HTTPS" style="text;html=1;strokeColor=none;fillColor=none;align=center;verticalAlign=middle;whiteSpace=wrap;rounded=0;" vertex="1" parent="1">
          <mxGeometry x="636" y="285" width="60" height="30" as="geometry" />
        </mxCell>
        <mxCell id="S0poTsxjgl5lhnEiMx-0-48" value="" style="endArrow=classic;html=1;rounded=0;exitX=0.94;exitY=0.429;exitDx=0;exitDy=0;exitPerimeter=0;" edge="1" parent="1" source="S0poTsxjgl5lhnEiMx-0-50">
          <mxGeometry width="50" height="50" relative="1" as="geometry">
            <mxPoint x="710" y="140.0300000000002" as="sourcePoint" />
            <mxPoint x="870" y="140" as="targetPoint" />
          </mxGeometry>
        </mxCell>
        <mxCell id="S0poTsxjgl5lhnEiMx-0-49" value="" style="verticalLabelPosition=bottom;html=1;verticalAlign=top;align=center;strokeColor=none;fillColor=#00BEF2;shape=mxgraph.azure.storage_blob;" vertex="1" parent="1">
          <mxGeometry x="627" y="110" width="69" height="65" as="geometry" />
        </mxCell>
        <mxCell id="S0poTsxjgl5lhnEiMx-0-50" value="FrontEnd" style="shape=module;align=left;spacingLeft=20;align=center;verticalAlign=top;whiteSpace=wrap;html=1;" vertex="1" parent="1">
          <mxGeometry x="800" y="117.5" width="100" height="50" as="geometry" />
        </mxCell>
        <mxCell id="S0poTsxjgl5lhnEiMx-0-51" value="" style="endArrow=none;dashed=1;html=1;dashPattern=1 3;strokeWidth=2;rounded=0;entryX=0;entryY=0.47;entryDx=0;entryDy=0;entryPerimeter=0;exitX=1;exitY=0.5;exitDx=0;exitDy=0;exitPerimeter=0;" edge="1" parent="1" source="S0poTsxjgl5lhnEiMx-0-49" target="S0poTsxjgl5lhnEiMx-0-50">
          <mxGeometry width="50" height="50" relative="1" as="geometry">
            <mxPoint x="600" y="260" as="sourcePoint" />
            <mxPoint x="650" y="210" as="targetPoint" />
          </mxGeometry>
        </mxCell>
      </root>
    </mxGraphModel>
  </diagram>
</mxfile>
